# xmcd
#
# Track frame offsets:
#       150
#       13820
#       24720
#       42727
#       55537
#       69012
#       80900
#       90045
#       99842
#       112740
#       123327
#       140767
#       153255
#       169472
#       184835
#       201230
#       212957
#
# Disc length: 3064 seconds
#
# Revision: 0
# Processed by: cddbd v1.4PL0 Copyright (c) Steve Scherf et al.
# Submitted via: CD-DA_X-Tractor v0.23
#
DISCID=e40bf611
DTITLE=Various Artist - Gospel Country CD2
DYEAR=1994
DGENRE=Gospel
TTITLE0=Warner mack - Amazing grace
TTITLE1=Nat Stuckey - Trust in the word
TTITLE2=Jeannie C. Riley - Last train to glory
TTITLE3=Charlie Louvin - The family who prayes
TTITLE4=Wilma Burgess - This highway leads to glory
TTITLE5=Johny Russell - Softly and tenderly
TTITLE6=Jim Ed Brown - When the roll is called up yonder
TTITLE7=Margie Bowes - I'll fly away
TTITLE8=Stu Phillips - All his children
TTITLE9=Ferlin Husky - Wings of a dove
TTITLE10=Kenny Price - Steal away
TTITLE11=Johny Russell - Just a closer walk with thee
TTITLE12=Bill phillips - The old rugged cross
TTITLE13=Margo Smith - You light up my life
TTITLE14=Marion Worth - How great thou art
TTITLE15=Sandy Posey - Let's all go down the river
TTITLE16=Skeeter Davis - Oh happy day
EXTD=
EXTT0=
EXTT1=
EXTT2=
EXTT3=
EXTT4=
EXTT5=
EXTT6=
EXTT7=
EXTT8=
EXTT9=
EXTT10=
EXTT11=
EXTT12=
EXTT13=
EXTT14=
EXTT15=
EXTT16=
PLAYORDER=
